<svg xmlns="http://www.w3.org/2000/svg" viewBox="0 0 48 48" width="48" height="48">
  <!-- Document base -->
  <path d="M12 4C9.79 4 8 5.79 8 8V40C8 42.21 9.79 44 12 44H36C38.21 44 40 42.21 40 40V16L28 4H12Z" fill="#1E88E5"/>
  <!-- Top highlight -->
  <path d="M12 4C9.79 4 8 5.79 8 8V22H40V16L28 4H12Z" fill="white" opacity="0.08"/>
  <!-- Corner fold shadow & flap -->
  <path d="M28 16V17C28 17.55 28.45 18 29 18H38L40 16H28Z" fill="black" opacity="0.12"/>
  <path d="M28 4V13C28 14.66 29.34 16 31 16H40L28 4Z" fill="black" opacity="0.22"/>
  <!-- Category icon -->
  <line x1="16" y1="18" x2="32" y2="18" stroke="#FFFFFF" stroke-width="2" stroke-linecap="round"/>
  <line x1="16" y1="22" x2="32" y2="22" stroke="#FFFFFF" stroke-width="2" stroke-linecap="round"/>
  <line x1="16" y1="26" x2="26" y2="26" stroke="#FFFFFF" stroke-width="2" stroke-linecap="round"/>
  <!-- Type pill badge -->
  <rect x="11" y="32" width="26" height="9" rx="2.5" fill="rgba(0,0,0,0.22)"/>
  <text x="24" y="38.8" font-family="system-ui, -apple-system, 'Segoe UI', Roboto, Helvetica, Arial, sans-serif" font-size="5.5" font-weight="800" fill="#FFFFFF" text-anchor="middle" letter-spacing="0.5">DOCX</text>
</svg>
